<?xml version="1.0" standalone="no"?>
<!DOCTYPE svg PUBLIC "-//W3C//DTD SVG 20010904//EN"
 "http://www.w3.org/TR/2001/REC-SVG-20010904/DTD/svg10.dtd">
<svg version="1.0" xmlns="http://www.w3.org/2000/svg"
 width="772.000000pt" height="692.000000pt" viewBox="0 0 772.000000 692.000000"
 preserveAspectRatio="xMidYMid meet">

<g transform="translate(0.000000,692.000000) scale(0.100000,-0.100000)"
fill="#000000" stroke="none">
<path d="M3605 4620 c-158 -29 -274 -96 -420 -244 -181 -183 -234 -301 -242
-536 -8 -203 31 -379 138 -629 72 -167 229 -441 276 -483 16 -14 161 -53 169
-46 1 2 -11 50 -27 108 -41 145 -71 299 -64 327 9 38 38 46 100 28 46 -13 63
-26 117 -85 l62 -70 54 52 c30 29 105 112 167 183 61 72 122 139 134 149 29
26 28 101 -4 190 -13 39 -23 71 -22 71 1 1 45 16 97 34 194 66 381 175 454
264 53 64 76 122 76 192 0 73 -16 108 -103 241 -116 175 -191 230 -231 169
-30 -46 -78 -25 -131 57 -9 14 -22 14 -121 -6 -99 -20 -114 -20 -145 -8 -97
41 -241 59 -334 42z"/>
<path d="M4460 2368 c0 -31 -61 -137 -101 -176 -86 -86 -187 -118 -343 -109
-204 12 -432 89 -605 205 l-96 64 -70 -22 c-38 -12 -126 -45 -195 -72 -386
-156 -629 -336 -684 -506 -11 -36 -46 -375 -46 -451 0 -20 207 -148 365 -226
347 -171 692 -257 1085 -272 454 -17 906 85 1310 294 129 66 346 205 413 264
l38 34 -10 143 c-15 189 -44 324 -79 369 -10 11 -219 116 -467 233 -545 257
-515 244 -515 228z"/>
</g>
</svg>
